<svg xmlns="http://www.w3.org/2000/svg" viewBox="0 -8 104 108">
  <!-- カレンダー背景 -->
  <rect x="0" y="0" width="104" height="100" rx="15" fill="white"/>
  <!-- ヘッダー -->
  <rect x="0" y="0" width="104" height="28" rx="15" fill="#2AA899"/>
  <rect x="0" y="16" width="104" height="12" fill="#2AA899"/>
  <!-- リング（cy="1"のままでviewBoxで上のスペースを確保） -->
  <circle cx="34" cy="1" r="6" fill="white" stroke="#2AA899" stroke-width="2"/>
  <circle cx="70" cy="1" r="6" fill="white" stroke="#2AA899" stroke-width="2"/>
  <!-- グリッド -->
  <rect x="16" y="36" width="12" height="12" rx="3" fill="#6BBFB5"/>
  <rect x="36" y="36" width="12" height="12" rx="3" fill="#F2994A"/>
  <rect x="56" y="36" width="12" height="12" rx="3" fill="#9B84CC"/>
  <rect x="76" y="36" width="12" height="12" rx="3" fill="#4A90D9"/>
  <rect x="16" y="54" width="12" height="12" rx="3" fill="#F2994A"/>
  <rect x="36" y="54" width="12" height="12" rx="3" fill="#9B84CC"/>
  <rect x="56" y="54" width="12" height="12" rx="3" fill="#4A90D9"/>
  <rect x="76" y="54" width="12" height="12" rx="3" fill="#6BBFB5"/>
  <rect x="16" y="72" width="12" height="12" rx="3" fill="#9B84CC"/>
  <rect x="36" y="72" width="12" height="12" rx="3" fill="#4A90D9"/>
  <!-- スタンプ -->
  <circle cx="72" cy="70" r="23" fill="white"/>
  <circle cx="72" cy="70" r="22" fill="none" stroke="#2AA899" stroke-width="2"/>
  <polygon points="72,54 76.7,63.5 87,65 79.5,72.5 81.4,83 72,77.5 62.6,83 64.5,72.5 57,65 67.3,63.5"
    fill="#2AA899" stroke="#2AA899" stroke-width="5" stroke-linejoin="round"/>
</svg>